<?xml version="1.0" encoding="utf-8"?>
<!-- Generator: Adobe Illustrator 16.0.0, SVG Export Plug-In . SVG Version: 6.00 Build 0)  -->
<!DOCTYPE svg PUBLIC "-//W3C//DTD SVG 1.1//EN" "http://www.w3.org/Graphics/SVG/1.1/DTD/svg11.dtd">
<svg version="1.1" id="Layer_1" xmlns="http://www.w3.org/2000/svg" xmlns:xlink="http://www.w3.org/1999/xlink" x="0px" y="0px"
	 width="232.632px" height="513.68px" viewBox="0 0 232.632 513.68" enable-background="new 0 0 232.632 513.68"
	 xml:space="preserve">
<g>
	<path fill="none" d="M-701.618,506.416c-0.079,1.318-0.109,1.879-0.081,1.854C-701.726,508.277-701.695,507.717-701.618,506.416
		L-701.618,506.416z"/>
	<path fill="none" d="M-675.587,243.038c0-3.513,0-7.028,0-13.724c-9.621,13.314-17.063,23.779-24.676,34.121
		c-26.521,36.023-54.738,71.016-68.584,114.629c-0.762,2.4-1.83,5.047-4.807,5.004c-3.647-0.057-4.306-3.225-5.278-6.039
		c-7.412-21.486-18.339-41.189-30.748-60.121c-21.526-32.834-47.175-62.766-69.481-95.979c0,74.528,0.165,149.053-0.195,223.579
		c-0.009,1.703,0.15,4.275,0.448,7.381c0.033,0.348,0.07,0.711,0.106,1.072c0.015,0.145,0.027,0.281,0.043,0.428
		c1.267,12.152,4.396,31.008,7.967,39.518c-3.571-8.512-6.7-27.365-7.966-39.516c-0.016-0.146-0.028-0.283-0.043-0.428h23.741
		V390.08h27.724l0.059,2.502c0.02,0.707,0.039,1.416,0.039,2.125l0.002,86.283c3.153,0.059,8.824,0.256,14.339,0.449l1.367,0.047
		c0.001-10.289,0.007-20.91,0.014-31.516c0.006-11.109,0.014-22.203,0.014-32.887v-1.547h35.191v1.547
		c0,4.246-0.008,8.965-0.016,13.697c-0.008,4.186-0.016,8.387-0.018,12.283l0.108-0.002l36.538-0.002v39.91h11.152l0.002-86.27
		c0-0.676,0.018-1.354,0.037-2.033l0.058-2.586h27.728v62.879h25.324c0,0,0,0,0-0.002c0-0.377-0.003-0.756-0.004-1.135
		C-675.747,383.566-675.587,313.299-675.587,243.038z"/>
	<path d="M-776.947,59.012c-64.136,0-116.315,52.18-116.315,116.315v281.047c0,64.137,52.179,116.316,116.315,116.316
		s116.317-52.18,116.317-116.316V175.327C-660.63,111.192-712.81,59.012-776.947,59.012z M-828.446,163.852
		c0-28.995,23.505-52.5,52.5-52.5s52.5,23.505,52.5,52.5v27.125c0,28.995-23.505,52.5-52.5,52.5s-52.5-23.505-52.5-52.5V163.852z
		 M-701.699,508.269c-0.029,0.025,0.002-0.535,0.081-1.854h0.001C-701.695,507.717-701.726,508.277-701.699,508.269z
		 M-675.396,454.961h-25.324v-62.879h-27.728l-0.058,2.586c-0.02,0.68-0.037,1.357-0.037,2.033l-0.002,86.27h-11.152v-39.91
		l-36.538,0.002l-0.108,0.002c0.002-3.896,0.01-8.098,0.018-12.283c0.008-4.732,0.016-9.451,0.016-13.697v-1.547h-35.191v1.547
		c0,10.684-0.008,21.777-0.014,32.887c-0.007,10.605-0.013,21.227-0.014,31.516l-1.367-0.047
		c-5.515-0.193-11.186-0.391-14.339-0.449l-0.002-86.283c0-0.709-0.019-1.418-0.039-2.125l-0.059-2.502h-27.724v62.883H-878.8
		c0.015,0.145,0.027,0.281,0.043,0.428c1.266,12.15,4.395,31.004,7.966,39.516c-3.571-8.51-6.701-27.365-7.967-39.518
		c-0.016-0.146-0.028-0.283-0.043-0.428c-0.036-0.361-0.073-0.725-0.106-1.072c-0.298-3.105-0.457-5.678-0.448-7.381
		c0.36-74.525,0.195-149.051,0.195-223.579c22.306,33.213,47.955,63.145,69.481,95.979c12.409,18.932,23.336,38.635,30.748,60.121
		c0.972,2.814,1.631,5.982,5.278,6.039c2.977,0.043,4.045-2.604,4.807-5.004c13.846-43.613,42.063-78.605,68.584-114.629
		c7.612-10.341,15.055-20.806,24.676-34.121c0,6.695,0,10.211,0,13.724c0,70.26-0.16,140.528,0.188,210.786
		c0.001,0.379,0.004,0.758,0.004,1.135C-675.396,454.961-675.396,454.961-675.396,454.961z"/>
	<g>
		<g>
			<g>
				<path fill="none" d="M87.754,190.073c0,2.922,2.377,5.3,5.3,5.3s5.3-2.377,5.3-5.3v-21.566h-10.6V190.073z"/>
			</g>
		</g>
		<g>
			<g>
				<path fill="none" d="M66.188,157.908c-2.922,0-5.3,2.377-5.3,5.3s2.377,5.3,5.3,5.3h21.566h10.6l-12.062-10.6H66.188z"/>
			</g>
		</g>
		<g>
			<g>
				<g>
					<path fill="none" stroke="#000000" stroke-width="0" stroke-linecap="round" stroke-linejoin="round" d="M98.354,168.508"/>
				</g>
			</g>
			<g>
				<g>
					<path fill="none" stroke="#000000" stroke-width="0" stroke-linecap="round" stroke-linejoin="round" d="M87.754,168.508"/>
				</g>
			</g>
		</g>
	</g>
	<g>
		<path d="M-800.798,172.611c-2.649,0-4.804,2.155-4.804,4.804s2.155,4.804,4.804,4.804h19.549v19.549
			c0,2.648,2.155,4.804,4.804,4.804s4.804-2.155,4.804-4.804v-19.549l-10.933-9.607H-800.798z"/>
		<path d="M-776.446,109.018c-30.019,0-54.354,24.335-54.354,54.354v28.083c0,30.02,24.335,54.354,54.354,54.354
			c30.02,0,54.354-24.335,54.354-54.354v-28.083C-722.092,133.353-746.427,109.018-776.446,109.018z M-752.093,183.544h-18.223
			v18.224c0,3.379-2.75,6.129-6.129,6.129s-6.129-2.75-6.129-6.129v-18.224h-18.223c-3.38,0-6.13-2.75-6.13-6.129
			s2.75-6.129,6.13-6.129h18.223v-18.223c0-3.38,2.75-6.13,6.129-6.13s6.129,2.75,6.129,6.13v18.223h18.223
			c3.38,0,6.129,2.75,6.129,6.129S-748.713,183.544-752.093,183.544z"/>
	</g>
</g>
</svg>
